<?xml version="1.0" encoding="utf-8"?>
<!-- Generator: Adobe Illustrator 21.1.0, SVG Export Plug-In . SVG Version: 6.00 Build 0)  -->
<svg version="1.1" id="레이어_1" xmlns="http://www.w3.org/2000/svg" xmlns:xlink="http://www.w3.org/1999/xlink" x="0px"
	 y="0px" viewBox="0 0 48 48" style="enable-background:new 0 0 48 48;" xml:space="preserve">
<style type="text/css">
	.st0{fill:#FF6699;}
</style>
<g>
	<path class="st0" d="M43.8,0H4.2C2.7,0,1.4,1.3,1.4,2.8v8.5c0,1.6,1.3,2.8,2.8,2.8h39.5c1.6,0,2.8-1.3,2.8-2.8V2.8
		C46.6,1.3,45.3,0,43.8,0z"/>
	<path class="st0" d="M43.8,16.9H4.2c-1.6,0-2.8,1.3-2.8,2.8v8.5c0,1.6,1.3,2.8,2.8,2.8h39.5c1.6,0,2.8-1.3,2.8-2.8v-8.5
		C46.6,18.2,45.3,16.9,43.8,16.9z"/>
	<path class="st0" d="M43.8,33.9H4.2c-1.6,0-2.8,1.3-2.8,2.8v8.5c0,1.6,1.3,2.8,2.8,2.8h39.5c1.6,0,2.8-1.3,2.8-2.8v-8.5
		C46.6,35.2,45.3,33.9,43.8,33.9z"/>
</g>
</svg>
