<svg xmlns="http://www.w3.org/2000/svg" xmlns:xlink="http://www.w3.org/1999/xlink" version="1.1" x="0px" y="0px" viewBox="0 0 100 100" style="enable-background:new 0 0 100 100;" xml:space="preserve"><g><path d="M80.4,80.6l-5.6-6c-0.3-0.3-0.8-0.4-1.2-0.3C59.9,52,59.3,51.4,58.9,51.1c-3.5-2.9-4.3-3.6-4.9-3.8V27.7   c4.2-0.2,7.5-0.6,9.3-0.8c6.5-0.9,6.5-1.7,6.5-2.5v-8c0-1-0.3-1.6-6.6-2.4c-2.4-0.3-7.3-0.8-13.6-0.8c-6.3,0-11,0.5-13.3,0.8   c-5.9,0.8-6.4,1.4-6.4,2.4v8c0,0.8,0,1.6,6.5,2.5c1.8,0.3,5.2,0.7,9.5,0.8v19.6c-0.6,0.2-1.4,0.9-4.9,3.8c-0.3,0.3-1,0.9-14.6,23.3   c-0.4-0.2-0.9-0.1-1.2,0.3l-5.6,6c-0.7,0.7-0.9,1.6-0.8,2.6c0.2,0.9,0.7,1.7,1.6,2.2l2,1.1c0.4,0.2,0.9,0.3,1.4,0.3   c0.2,0,0.4,0,0.6-0.1l4.8-1c1.3-0.3,2.3-1.3,2.4-2.7l0.5-5.5c0-0.2,0-0.4-0.1-0.6l2.7-4.2l11.1-3.1v6.2c0,0.3,0.1,2.9,4.1,2.9   c3.9,0,4.1-2.6,4.1-2.9v-6.2l11.1,3.1l2.7,4.2c-0.1,0.2-0.1,0.4-0.1,0.6l0.5,5.5c0.1,1.3,1.1,2.4,2.4,2.7l4.8,1   c0.2,0,0.4,0.1,0.6,0.1c0.5,0,1-0.1,1.4-0.3l2-1.1c0.8-0.4,1.4-1.2,1.6-2.2C81.4,82.2,81.1,81.3,80.4,80.6z M50.1,49.2   c0.5,0,1.1-0.1,1.7-0.3v2.3c-1.6,0.9-3.2,0.2-3.6,0v-2.3C48.7,49.1,49.4,49.2,50.1,49.2z M51.8,63.2c-1.5,0.6-2.8,0.3-3.6,0v-9.6   c0.5,0.2,1.2,0.3,1.9,0.3c0.5,0,1.1-0.1,1.7-0.3V63.2z M45.9,62.9L41,64.3l4.9-6.5V62.9z M51.8,67.7c-1.5,0.6-2.8,0.3-3.6,0v-2.1   c0.6,0.2,1.2,0.3,1.9,0.3c0.5,0,1.1-0.1,1.7-0.2V67.7z M54,62.9v-5.1l4.9,6.5L54,62.9z M49.6,15.5c7.5,0,13.7,0.7,16.7,1.3   c0.3,0.1,0.3,0.4,0,0.5c-2.7,0.6-8.5,1.1-16.4,1.1c-8.2,0-14.2-0.6-16.7-1.2c-0.2,0-0.2-0.3,0-0.4C35.9,16.2,41.9,15.5,49.6,15.5z    M32.2,23.8v-4.6c2.4,0.7,7.4,1.4,17.7,1.4c5.1,0,9.8-0.2,13.4-0.6c1.9-0.2,3.3-0.5,4.3-0.7v4.6c-1.9,0.6-8.9,1.8-17.7,1.8   S34.1,24.4,32.2,23.8z M49.9,27.8c0.7,0,1.3,0,1.9,0v18.7c-1.6,0.9-3.2,0.2-3.6,0V27.8C48.7,27.8,49.3,27.8,49.9,27.8z M29.4,82.9   c0,0.3-0.3,0.6-0.6,0.7l-4.8,1c-0.2,0-0.4,0-0.5-0.1l-2-1.1C21.2,83.3,21,83,21,82.8s0-0.5,0.2-0.7l5.1-5.4l3.6,1.4L29.4,82.9z    M33.4,70.8l-3.2,5l-1.6-0.6c3.6-6,13.4-21.9,14-22.4c1.1-0.9,2.6-2.2,3.4-2.9v4.1L35.2,68.3l10.8-3v2L33.4,70.8z M50,76.5   c-1.8,0-1.8-0.6-1.8-0.6V70c0.6,0.2,1.2,0.3,1.9,0.3c0.5,0,1.1-0.1,1.7-0.2v5.8C51.8,75.9,51.8,76.5,50,76.5z M54,67.3v-2l10.8,3   L54,54.1v-4.1c0.8,0.7,2.4,2,3.4,2.9c0.6,0.5,10.3,16.4,14,22.4l-1.6,0.6l-3.2-5L54,67.3z M78.6,83.4l-2,1.1   c-0.2,0.1-0.3,0.1-0.5,0.1l-4.8-1c-0.3-0.1-0.6-0.3-0.6-0.7l-0.5-4.7l3.6-1.4l5.1,5.4c0.2,0.2,0.2,0.4,0.2,0.7   C79,82.9,78.9,83.2,78.6,83.4z"></path><circle cx="50" cy="31.4" r="0.9"></circle><circle cx="50" cy="35.4" r="0.9"></circle><circle cx="50" cy="39.4" r="0.9"></circle><circle cx="50" cy="43.4" r="0.9"></circle></g></svg>